<svg width="24" height="24" viewBox="0 0 24 24" fill="none" xmlns="http://www.w3.org/2000/svg">
<path d="M11.7686 3.92773C12.8294 3.92773 13.8468 4.34916 14.597 5.09931C15.3471 5.84945 15.7686 6.86687 15.7686 7.92773C15.7686 8.9886 15.3471 10.006 14.597 10.7562C13.8468 11.5063 12.8294 11.9277 11.7686 11.9277C10.7077 11.9277 9.69027 11.5063 8.94013 10.7562C8.18998 10.006 7.76855 8.9886 7.76855 7.92773C7.76855 6.86687 8.18998 5.84945 8.94013 5.09931C9.69027 4.34916 10.7077 3.92773 11.7686 3.92773ZM11.7686 13.9277C16.1886 13.9277 19.7686 15.7177 19.7686 17.9277V18.9277C19.7686 19.48 19.3208 19.9277 18.7686 19.9277H4.76855C4.21627 19.9277 3.76855 19.48 3.76855 18.9277V17.9277C3.76855 15.7177 7.34855 13.9277 11.7686 13.9277Z" fill="white"/>
</svg>
