<svg width="24" height="24" viewBox="0 0 24 24" fill="none" xmlns="http://www.w3.org/2000/svg">
<path d="M12.2914 14.5851C13.1014 14.5851 13.7914 14.2851 14.4014 13.6951C14.9914 13.0851 15.2914 12.3951 15.2914 11.5851C15.2914 10.7751 14.9914 10.0851 14.4014 9.47508C13.7914 8.88508 13.1014 8.58508 12.2914 8.58508C11.4814 8.58508 10.7914 8.88508 10.1814 9.47508C9.59138 10.0851 9.29138 10.7751 9.29138 11.5851C9.29138 12.3951 9.59138 13.0851 10.1814 13.6951C10.7914 14.2851 11.4814 14.5851 12.2914 14.5851ZM12.2914 1.58508C15.0414 1.58508 17.3914 2.58508 19.3414 4.53508C21.2914 6.48508 22.2914 8.83508 22.2914 11.5851V13.0351C22.2914 14.0351 21.9414 14.8851 21.2914 15.5851C20.5914 16.2551 19.7914 16.5851 18.7914 16.5851C17.5914 16.5851 16.6014 16.0851 15.8514 15.0851C14.8514 16.0851 13.6714 16.5851 12.2914 16.5851C10.9214 16.5851 9.74138 16.0851 8.75138 15.1251C7.79138 14.1351 7.29138 12.9651 7.29138 11.5851C7.29138 10.2151 7.79138 9.03508 8.75138 8.04508C9.74138 7.08508 10.9214 6.58508 12.2914 6.58508C13.6714 6.58508 14.8414 7.08508 15.8314 8.04508C16.7914 9.03508 17.2914 10.2151 17.2914 11.5851V13.0351C17.2914 13.4451 17.4514 13.8051 17.7514 14.1151C18.0514 14.4251 18.4014 14.5851 18.7914 14.5851C19.2114 14.5851 19.5614 14.4251 19.8614 14.1151C20.1614 13.8051 20.2914 13.4451 20.2914 13.0351V11.5851C20.2914 9.39508 19.5214 7.51508 17.9414 5.93508C16.3614 4.35508 14.4814 3.58508 12.2914 3.58508C10.1014 3.58508 8.22138 4.35508 6.64138 5.93508C5.06138 7.51508 4.29138 9.39508 4.29138 11.5851C4.29138 13.7751 5.06138 15.6551 6.64138 17.2351C8.22138 18.8151 10.1014 19.5851 12.2914 19.5851H16.2914C16.8437 19.5851 17.2914 20.0328 17.2914 20.5851V20.5851C17.2914 21.1374 16.8437 21.5851 16.2914 21.5851H12.2914C9.54138 21.5851 7.19138 20.5851 5.24138 18.6351C3.29138 16.6851 2.29138 14.3351 2.29138 11.5851C2.29138 8.83508 3.29138 6.48508 5.24138 4.53508C7.19138 2.58508 9.54138 1.58508 12.2914 1.58508Z" fill="white"/>
</svg>
