<svg width="24" height="24" viewBox="0 0 24 24" fill="none" xmlns="http://www.w3.org/2000/svg">
<path d="M12.3352 15.176C11.4069 15.176 10.5167 14.8073 9.86032 14.1509C9.20395 13.4945 8.8352 12.6043 8.8352 11.676C8.8352 10.7478 9.20395 9.85753 9.86032 9.20115C10.5167 8.54477 11.4069 8.17603 12.3352 8.17603C13.2635 8.17603 14.1537 8.54477 14.8101 9.20115C15.4664 9.85753 15.8352 10.7478 15.8352 11.676C15.8352 12.6043 15.4664 13.4945 14.8101 14.1509C14.1537 14.8073 13.2635 15.176 12.3352 15.176ZM19.7652 12.646C19.8052 12.326 19.8352 12.006 19.8352 11.676C19.8352 11.346 19.8052 11.016 19.7652 10.676L21.8752 9.04603C22.0652 8.89603 22.1152 8.62602 21.9952 8.40602L19.9952 4.94603C19.8752 4.72603 19.6052 4.63603 19.3852 4.72603L16.8952 5.72603C16.3752 5.33603 15.8352 4.99603 15.2052 4.74603L14.8352 2.09603C14.7952 1.85603 14.5852 1.67603 14.3352 1.67603H10.3352C10.0852 1.67603 9.8752 1.85603 9.8352 2.09603L9.4652 4.74603C8.8352 4.99603 8.2952 5.33603 7.7752 5.72603L5.2852 4.72603C5.0652 4.63603 4.7952 4.72603 4.6752 4.94603L2.6752 8.40602C2.5452 8.62602 2.6052 8.89603 2.7952 9.04603L4.9052 10.676C4.8652 11.016 4.8352 11.346 4.8352 11.676C4.8352 12.006 4.8652 12.326 4.9052 12.646L2.7952 14.306C2.6052 14.456 2.5452 14.726 2.6752 14.946L4.6752 18.406C4.7952 18.626 5.0652 18.706 5.2852 18.626L7.7752 17.616C8.2952 18.016 8.8352 18.356 9.4652 18.606L9.8352 21.256C9.8752 21.496 10.0852 21.676 10.3352 21.676H14.3352C14.5852 21.676 14.7952 21.496 14.8352 21.256L15.2052 18.606C15.8352 18.346 16.3752 18.016 16.8952 17.616L19.3852 18.626C19.6052 18.706 19.8752 18.626 19.9952 18.406L21.9952 14.946C22.1152 14.726 22.0652 14.456 21.8752 14.306L19.7652 12.646Z" fill="white"/>
</svg>
