<svg width="24" height="24" viewBox="0 0 24 24" fill="none" xmlns="http://www.w3.org/2000/svg">
<path d="M18.9661 11.85C18.9661 12.4023 18.5184 12.85 17.9661 12.85H12.9661V17.85C12.9661 18.4023 12.5184 18.85 11.9661 18.85V18.85C11.4138 18.85 10.9661 18.4023 10.9661 17.85V12.85H5.96613C5.41384 12.85 4.96613 12.4023 4.96613 11.85V11.85C4.96613 11.2977 5.41384 10.85 5.96613 10.85H10.9661V5.84998C10.9661 5.29769 11.4138 4.84998 11.9661 4.84998V4.84998C12.5184 4.84998 12.9661 5.29769 12.9661 5.84998V10.85H17.9661C18.5184 10.85 18.9661 11.2977 18.9661 11.85V11.85Z" fill="white"/>
</svg>
