<svg width="24" height="24" viewBox="0 0 24 24" fill="none" xmlns="http://www.w3.org/2000/svg">
<path d="M19.15 7.04086C19.4833 6.80753 19.825 6.79086 20.175 6.99086C20.525 7.19086 20.7 7.49086 20.7 7.89086L20.7 16.1409C20.7 16.5409 20.525 16.8369 20.175 17.0289C19.825 17.2202 19.4833 17.2075 19.15 16.9909L12.95 12.8409C12.65 12.6409 12.5 12.3659 12.5 12.0159C12.5 11.6659 12.65 11.3909 12.95 11.1909L19.15 7.04086ZM9.15 7.04086C9.48333 6.80753 9.825 6.79086 10.175 6.99086C10.525 7.19086 10.7 7.49086 10.7 7.89086L10.7 16.1409C10.7 16.5409 10.525 16.8369 10.175 17.0289C9.825 17.2202 9.48333 17.2075 9.15 16.9909L2.95 12.8409C2.65 12.6409 2.5 12.3659 2.5 12.0159C2.5 11.6659 2.65 11.3909 2.95 11.1909L9.15 7.04086Z" fill="white"/>
</svg>
