<svg width="24" height="24" viewBox="0 0 24 24" fill="none" xmlns="http://www.w3.org/2000/svg">
<path d="M12.2623 19.8566C10.1405 19.8566 8.1057 19.0137 6.60541 17.5134C5.10512 16.0131 4.26227 13.9783 4.26227 11.8566C4.26227 9.73484 5.10512 7.7 6.60541 6.19971C8.1057 4.69942 10.1405 3.85657 12.2623 3.85657C14.384 3.85657 16.4188 4.69942 17.9191 6.19971C19.4194 7.7 20.2623 9.73484 20.2623 11.8566C20.2623 13.9783 19.4194 16.0131 17.9191 17.5134C16.4188 19.0137 14.384 19.8566 12.2623 19.8566ZM12.2623 1.85657C10.949 1.85657 9.64869 2.11523 8.43543 2.61777C7.22218 3.12032 6.11979 3.85691 5.1912 4.7855C3.31584 6.66086 2.26227 9.2044 2.26227 11.8566C2.26227 14.5087 3.31584 17.0523 5.1912 18.9276C6.11979 19.8562 7.22218 20.5928 8.43543 21.0954C9.64869 21.5979 10.949 21.8566 12.2623 21.8566C14.9144 21.8566 17.458 20.803 19.3333 18.9276C21.2087 17.0523 22.2623 14.5087 22.2623 11.8566C22.2623 10.5433 22.0036 9.24299 21.5011 8.02973C20.9985 6.81648 20.2619 5.71409 19.3333 4.7855C18.4048 3.85691 17.3024 3.12032 16.0891 2.61777C14.8758 2.11523 13.5755 1.85657 12.2623 1.85657Z" fill="white"/>
</svg>
