<svg width="24" height="24" viewBox="0 0 24 24" fill="none" xmlns="http://www.w3.org/2000/svg">
<path fill-rule="evenodd" clip-rule="evenodd" d="M9.17 17C9.3766 16.4145 9.75974 15.9074 10.2666 15.5488C10.7735 15.1901 11.3791 14.9976 12 14.9976C12.6209 14.9976 13.2265 15.1901 13.7334 15.5488C14.2403 15.9074 14.6234 16.4145 14.83 17H20C20.5523 17 21 17.4477 21 18V18C21 18.5523 20.5523 19 20 19H14.83C14.6234 19.5855 14.2403 20.0926 13.7334 20.4512C13.2265 20.8099 12.6209 21.0025 12 21.0025C11.3791 21.0025 10.7735 20.8099 10.2666 20.4512C9.75974 20.0926 9.3766 19.5855 9.17 19H4C3.44772 19 3 18.5523 3 18V18C3 17.4477 3.44772 17 4 17H9.17ZM12 19C12.2652 19 12.5196 18.8946 12.7071 18.7071C12.8946 18.5196 13 18.2652 13 18C13 17.7348 12.8946 17.4804 12.7071 17.2929C12.5196 17.1054 12.2652 17 12 17C11.7348 17 11.4804 17.1054 11.2929 17.2929C11.1054 17.4804 11 17.7348 11 18C11 18.2652 11.1054 18.5196 11.2929 18.7071C11.4804 18.8946 11.7348 19 12 19ZM14 12L12 14L10 12H7C6.46957 12 5.96086 11.7893 5.58579 11.4142C5.21071 11.0391 5 10.5304 5 10V5C5 4.46957 5.21071 3.96086 5.58579 3.58579C5.96086 3.21071 6.46957 3 7 3H17C17.5304 3 18.0391 3.21071 18.4142 3.58579C18.7893 3.96086 19 4.46957 19 5V10C19 10.5304 18.7893 11.0391 18.4142 11.4142C18.0391 11.7893 17.5304 12 17 12H14ZM7 5V10H17V5H7Z" fill="white"/>
</svg>
