<svg width="24" height="24" viewBox="0 0 24 24" fill="none" xmlns="http://www.w3.org/2000/svg">
<path d="M14 20.725V18.675C15.5 18.2416 16.7083 17.4083 17.625 16.175C18.5417 14.9416 19 13.5416 19 11.975C19 10.4083 18.5417 9.00831 17.625 7.77498C16.7083 6.54164 15.5 5.70831 14 5.27498V3.22498C16.0667 3.69164 17.75 4.73731 19.05 6.36198C20.35 7.98731 21 9.85831 21 11.975C21 14.0916 20.35 15.9623 19.05 17.587C17.75 19.2123 16.0667 20.2583 14 20.725ZM4 15C3.44772 15 3 14.5523 3 14V9.99998C3 9.44769 3.44772 8.99998 4 8.99998H7L12 3.99998V20L7 15H4ZM14 16V7.94998C14.7833 8.31664 15.396 8.86664 15.838 9.59998C16.2793 10.3333 16.5 11.1333 16.5 12C16.5 12.85 16.2793 13.6373 15.838 14.362C15.396 15.0873 14.7833 15.6333 14 16Z" fill="white"/>
</svg>
