<svg width="24" height="24" viewBox="0 0 24 24" fill="none" xmlns="http://www.w3.org/2000/svg">
<path d="M9.91 6.09L12 4V8.18L9.91 6.09Z" fill="white"/>
<path d="M7.73 9L3.635 4.905C3.2843 4.5543 3.2843 3.9857 3.635 3.635C3.9857 3.2843 4.5543 3.2843 4.905 3.635L20.3642 19.0942C20.7154 19.4454 20.7154 20.0146 20.3642 20.3658C20.0137 20.7163 19.4456 20.717 19.0942 20.3673L17.68 18.96C16.63 19.82 15.38 20.45 14 20.77V18.7C14.83 18.46 15.58 18.04 16.25 17.53L12 13.27V20L7 15H4C3.44772 15 3 14.5523 3 14V10C3 9.44772 3.44772 9 4 9H7.73Z" fill="white"/>
<path d="M18.46 14.64C18.8 13.82 19 12.94 19 12C19 8.83 16.89 6.15 14 5.29V3.23C18 4.14 21 7.72 21 12C21 13.5 20.62 14.91 19.97 16.15L18.46 14.64Z" fill="white"/>
<path d="M14 7.97C15.5 8.71 16.5 10.23 16.5 12V12C16.5 12.21 16.5 12.43 16.45 12.63L14 10.18V7.97Z" fill="white"/>
</svg>
