<svg width="24" height="24" viewBox="0 0 24 24" fill="none" xmlns="http://www.w3.org/2000/svg">
<path fill-rule="evenodd" clip-rule="evenodd" d="M16.2426 12.2426C15.0711 13.4142 12 16.5 12 16.5C12 16.5 8.92893 13.4142 7.75736 12.2426C5.41421 9.89949 5.41421 6.10051 7.75736 3.75736C10.1005 1.41421 13.8995 1.41421 16.2426 3.75736C18.5858 6.10051 18.5858 9.89949 16.2426 12.2426ZM16 7.99999C16 10.2091 14.2091 12 12 12C9.79086 12 8 10.2091 8 7.99999C8 5.79085 9.79086 3.99999 12 3.99999C14.2091 3.99999 16 5.79085 16 7.99999ZM12 22C13.1046 22 14 21.1046 14 20C14 18.8954 13.1046 18 12 18C10.8954 18 10 18.8954 10 20C10 21.1046 10.8954 22 12 22ZM2 19H8V21H2V19ZM22 19H16V21H22V19Z" fill="white"/>
</svg>
