<svg width="24" height="24" viewBox="0 0 24 24" fill="none" xmlns="http://www.w3.org/2000/svg">
<path d="M5 18.0857V21.0025H7.91678L16.5193 12.3999L13.6026 9.48315L5 18.0857ZM18.775 10.1443C19.0783 9.84095 19.0783 9.35093 18.775 9.04758L16.9549 7.22751C16.6516 6.92416 16.1616 6.92416 15.8582 7.22751L14.4348 8.6509L17.3516 11.5677L18.775 10.1443Z" fill="white"/>
<path fill-rule="evenodd" clip-rule="evenodd" d="M3 5H21V18H13.8498L11.7131 20H21C22.1046 20 23 19.1046 23 18V5C23 3.89543 22.1046 3 21 3H3C1.89543 3 1 3.89543 1 5V18C1 19.1046 1.89543 20 3 20V18L3 17.5795V5Z" fill="white"/>
</svg>
