<svg width="436" height="301" viewBox="0 0 436 301" fill="none" xmlns="http://www.w3.org/2000/svg">
<g clip-path="url(#clip0)">
<path fill-rule="evenodd" clip-rule="evenodd" d="M125.839 10.1556C111.48 10.1556 99.8395 21.7961 99.8395 36.1555V58.9031C99.536 77.7574 84.1574 92.9482 65.2308 92.9482C46.1144 92.9482 30.6175 108.445 30.6175 127.561C30.6175 146.678 46.1144 162.175 65.2308 162.175C84.1574 162.175 99.536 177.365 99.8395 196.22V197.356C99.536 216.21 84.1574 231.401 65.2308 231.401H34.6133C15.4969 231.401 0 246.898 0 266.014C0 285.131 15.4969 300.628 34.6133 300.628H86.6448L99.8395 300.628H146.839C156.228 300.628 163.839 293.017 163.839 283.628V10.1556H125.839Z" fill="#975FE8"/>
<path fill-rule="evenodd" clip-rule="evenodd" d="M125.839 10.1556C111.48 10.1556 99.8395 21.7961 99.8395 36.1555V58.9031C99.6498 70.6861 93.5724 81.0382 84.4208 87.1459C84.3498 87.2104 84.2628 87.2747 84.1595 87.339C70.7275 95.6966 61.7864 110.593 61.7864 127.577C61.7864 144.128 70.2777 158.697 83.1417 167.163C93.0022 173.137 99.6411 183.896 99.8395 196.22V197.356C99.536 216.21 84.1574 231.401 65.2308 231.401H64.6133C45.4969 231.401 30 246.898 30 266.014C30 285.131 45.4969 300.628 64.6133 300.628H86.6448H99.8395H125.054H146.839C156.228 300.628 163.839 293.017 163.839 283.628V10.1556H125.839Z" fill="#975FE8"/>
<path fill-rule="evenodd" clip-rule="evenodd" d="M253.526 13.4987C240.704 6.38025 228.101 0.5 216.822 0.5H184.827H108.821C90.0872 0.5 74.9003 15.6869 74.9003 34.4209C74.9003 53.1549 90.0872 68.3418 108.821 68.3418H177.605C196.339 68.3418 211.526 83.5287 211.526 102.263C211.526 120.997 196.339 136.184 177.605 136.184H167.344C148.61 136.184 133.423 151.37 133.423 170.104C133.423 188.838 148.61 204.025 167.344 204.025H181.618C200.352 204.025 215.539 219.212 215.539 237.946L215.92 236.45V241.642C215.92 271.114 248.698 288.757 273.298 272.525L419.362 176.148C440.926 161.919 440.926 130.28 419.362 116.051L273.298 19.674C267.013 15.5273 260.195 13.5914 253.526 13.4987Z" fill="#22BAFF"/>
<path fill-rule="evenodd" clip-rule="evenodd" d="M215.575 237.794V280.893C215.575 293.634 229.741 301.264 240.379 294.253L269.878 274.812C271.085 274.187 272.276 273.488 273.449 272.711L330.3 235.06C331.216 234.453 332.119 233.836 333.009 233.208L340.415 228.327V227.499C390.819 185.09 390.819 106.611 340.415 64.2017V63.7821L340.135 63.9668C337.045 61.3842 333.766 58.9368 330.3 56.6409L273.449 18.9901C272.356 18.2661 271.247 17.6091 270.125 17.0172C251.954 6.75463 232.806 0.5 216.822 0.5H184.827H158.821C140.087 0.5 124.9 15.6869 124.9 34.4209C124.9 53.1549 140.087 68.3418 158.821 68.3418H177.605C196.339 68.3418 211.526 83.5287 211.526 102.263C211.526 115.982 203.381 127.799 191.663 133.142C178.94 140.093 170.309 153.597 170.309 169.117C170.309 185.971 180.488 200.448 195.033 206.736C195.129 206.777 195.208 206.827 195.271 206.886C207.205 212.14 215.537 224.07 215.537 237.946L215.575 237.794Z" fill="#22BAFF"/>
</g>
<defs>
<clipPath id="clip0">
<rect width="435.349" height="300" fill="white" transform="translate(0 0.5)"/>
</clipPath>
</defs>
</svg>
